<svg width="32" height="32" viewBox="0 0 32 32" fill="none" xmlns="http://www.w3.org/2000/svg">
<g clip-path="url(#clip0_1647_2561)">
<path d="M17 32C17 32 30 20.628 30 12C30 8.8174 28.6304 5.76515 26.1924 3.51472C23.7544 1.26428 20.4478 0 17 0C13.5522 0 10.2456 1.26428 7.80761 3.51472C5.36964 5.76515 4 8.8174 4 12C4 20.628 17 32 17 32ZM17 18C15.2761 18 13.6228 17.3679 12.4038 16.2426C11.1848 15.1174 10.5 13.5913 10.5 12C10.5 10.4087 11.1848 8.88258 12.4038 7.75736C13.6228 6.63214 15.2761 6 17 6C18.7239 6 20.3772 6.63214 21.5962 7.75736C22.8152 8.88258 23.5 10.4087 23.5 12C23.5 13.5913 22.8152 15.1174 21.5962 16.2426C20.3772 17.3679 18.7239 18 17 18Z" fill="#029AAD" stroke="white"/>
<circle cx="17.3332" cy="12" r="6.66667" fill="white"/>
</g>
<defs>
<clipPath id="clip0_1647_2561">
<rect width="32" height="32" fill="white"/>
</clipPath>
</defs>
</svg>
