<svg width="27" height="35" viewBox="0 0 27 35" fill="none" xmlns="http://www.w3.org/2000/svg">
<path d="M13.5 35C13.5 35 26.625 22.5619 26.625 13.125C26.625 9.64403 25.2422 6.30564 22.7808 3.84422C20.3194 1.38281 16.981 0 13.5 0C10.019 0 6.68064 1.38281 4.21922 3.84422C1.75781 6.30564 0.375 9.64403 0.375 13.125C0.375 22.5619 13.5 35 13.5 35ZM13.5 19.6875C11.7595 19.6875 10.0903 18.9961 8.85961 17.7654C7.6289 16.5347 6.9375 14.8655 6.9375 13.125C6.9375 11.3845 7.6289 9.71532 8.85961 8.48461C10.0903 7.2539 11.7595 6.5625 13.5 6.5625C15.2405 6.5625 16.9097 7.2539 18.1404 8.48461C19.3711 9.71532 20.0625 11.3845 20.0625 13.125C20.0625 14.8655 19.3711 16.5347 18.1404 17.7654C16.9097 18.9961 15.2405 19.6875 13.5 19.6875Z" fill="#FF0000"/>
</svg>
